<?xml version="1.0" standalone="no"?><!DOCTYPE svg PUBLIC "-//W3C//DTD SVG 1.1//EN" "http://www.w3.org/Graphics/SVG/1.1/DTD/svg11.dtd"><svg t="1495182277309" class="icon" style="" viewBox="0 0 1024 1024" version="1.1" xmlns="http://www.w3.org/2000/svg" xmlns:xlink="http://www.w3.org/1999/xlink" width="200" height="200"><defs><style type="text/css"></style></defs><path d="M67.941392 488.487493c1.056052-3.872191 2.707668-7.593955 5.674233-10.646478l112.535029-115.285676c9.207709-9.429767 24.091698-9.429767 33.304524 0 9.207709 9.43693 9.207709 24.696472 0 34.133402l-77.587076 79.46075 205.262944 0c13.023618 0 23.556509 10.790764 23.556509 24.114211 0 13.328563-10.532891 24.121374-23.556509 24.121374L145.189753 524.385075l76.994582 78.904071c9.491165 9.700943 9.491165 25.470091 0 35.19764-9.491165 9.721409-24.894993 9.721409-34.386158 0L71.635527 519.495718c-4.968152-5.075599-7.206122-11.777231-6.969739-18.452257-0.024559-0.290619-0.166799-0.508583-0.166799-0.778736C64.49899 495.915673 65.959248 492.043483 67.941392 488.487493L67.941392 488.487493zM411.598312 800.361547l76.848249 78.92556L488.446561 669.228951c0-13.375635 10.527774-24.187889 23.555485-24.187889 13.024641 0 23.550369 10.812253 23.550369 24.187889l0 208.17425 77.748758-79.849606c9.491165-9.748015 24.894993-9.748015 34.386158 0 9.466606 9.721409 9.466606 25.568329 0 35.289738L531.501146 952.173115c-5.065366 5.200442-11.751648 7.42818-18.345834 7.085372-0.424672 0.025583-0.733711 0.243547-1.152243 0.243547-4.406356 0-8.292873-1.571798-11.800767-3.725858-3.416819-1.136893-6.641257-2.855024-9.348925-5.611811L378.318348 834.588069c-9.212826-9.458419-9.212826-24.747637 0-34.206056C387.526057 790.924617 402.410046 790.900058 411.598312 800.361547L411.598312 800.361547zM676.869978 475.837382l205.66101 0-78.006632-79.900771c-9.207709-9.431813-9.207709-24.696472 0-34.128285 9.207709-9.43693 24.096814-9.43693 33.304524 0L950.363909 477.119585c3.13234 3.192715 4.780887 7.131421 5.79089 11.248182 0.541329 0.991584 0.919952 2.101871 1.370207 3.166109 0.069585 0.170892 0.161682 0.337691 0.206708 0.481977 1.01512 2.471284 1.768273 5.080715 1.768273 7.962346 0 0.192382-0.116657 0.38374-0.116657 0.555655 0.161682 6.556323-2.122337 13.184277-7.019881 18.213827L836.201823 637.733633c-9.491165 9.727549-24.894993 9.727549-34.386158 0-9.491165-9.721409-9.491165-25.494651 0-35.196617l76.590376-78.443583L676.869978 524.093433c-13.024641 0-23.550369-10.790764-23.550369-24.115234C653.318586 486.649636 663.845337 475.837382 676.869978 475.837382L676.869978 475.837382zM612.56951 226.419799l-77.016071-79.102592 0 207.452819c0 13.350053-10.525728 24.187889-23.550369 24.187889-13.028735 0-23.555485-10.837836-23.555485-24.187889L488.447585 143.959739l-77.581959 79.678714c-9.207709 9.456373-24.091698 9.456373-33.304524 0-9.207709-9.458419-9.207709-24.747637 0-34.206056L490.095108 73.857125c2.970658-3.046383 6.594185-4.737908 10.390651-5.829775 3.461845-2.034333 7.226588-3.529383 11.517311-3.529383 0.283456 0 0.490164 0.165776 0.773619 0.165776 6.479575-0.239454 13.049201 2.055822 17.996886 7.136537l116.183116 119.349225c9.491165 9.722432 9.491165 25.569352 0 35.290761C637.444037 236.19442 622.060675 236.19442 612.56951 226.419799L612.56951 226.419799zM612.56951 226.419799"></path></svg>