<?xml version="1.0" standalone="no"?>
<!DOCTYPE svg PUBLIC "-//W3C//DTD SVG 1.1//EN" "http://www.w3.org/Graphics/SVG/1.1/DTD/svg11.dtd">
  <svg class="icon" viewBox="0 0 1024 1024" version="1.1" xmlns="http://www.w3.org/2000/svg" xmlns:xlink="http://www.w3.org/1999/xlink" width="200" height="200">
  <path d="M221.018278 265.848811l581.326948 0c16.607236 0 30.097482-13.461593 30.097482-30.097482s-13.491269-30.096459-30.097482-30.096459L681.455925 205.65487l0-76.477812c0-46.732347-38.033221-84.765569-84.765569-84.765569L426.673148 44.411489c-46.747697 0-84.780919 38.033221-84.780919 84.765569l0 76.477812L221.018278 205.65487c-16.620539 0-30.096459 13.46057-30.096459 30.096459S204.397738 265.848811 221.018278 265.848811zM402.08617 129.176035c0-13.549597 11.037381-24.571628 24.585955-24.571628L596.690356 104.604406c13.579273 0 24.571628 11.022031 24.571628 24.571628l0 76.477812L402.08617 205.653847 402.08617 129.176035z"></path>
  <path d="M802.345226 392.028605 221.018278 392.028605c-16.620539 0-30.096459 13.46057-30.096459 30.096459l0 471.944725c0 46.762023 38.032198 84.795245 84.780919 84.795245l471.944725 0c46.762023 0 84.795245-38.033221 84.795245-84.795245L832.442708 422.125063C832.442708 405.489174 818.952462 392.028605 802.345226 392.028605zM616.883257 452.222545l0 466.448548L402.08617 918.671093 402.08617 452.222545 616.883257 452.222545zM251.11576 894.069789 251.11576 452.222545l90.77647 0 0 466.448548-66.190515 0C262.137791 918.671093 251.11576 907.649062 251.11576 894.069789zM747.647463 918.671093l-70.570265 0L677.077198 452.222545l95.170546 0 0 441.847244C772.247744 907.649062 761.225713 918.671093 747.647463 918.671093z"></path>
</svg>