<?xml version="1.0" standalone="no"?><!DOCTYPE svg PUBLIC "-//W3C//DTD SVG 1.1//EN" "http://www.w3.org/Graphics/SVG/1.1/DTD/svg11.dtd"><svg t="1495876251061" class="icon" style="" viewBox="0 0 1024 1024" version="1.1" xmlns="http://www.w3.org/2000/svg" xmlns:xlink="http://www.w3.org/1999/xlink" width="200" height="200"><path d="M960 73.216v877.568h-896V73.216h896z m0-73.216h-896C28.672 0 0 32.768 0 73.216v877.568c0 40.448 28.672 73.216 64 73.216h896c35.328 0 64-32.768 64-73.216V73.216C1024 32.768 995.328 0 960 0z"></path><path d="M832 256c0 60.416-43.008 109.568-95.744 109.568S640 316.416 640 256c0-60.416 43.008-109.568 96.256-109.568s95.744 49.152 95.744 109.568zM896 877.568H128v-145.92l224.256-439.296 256 366.08h63.488L896 438.784v438.784z"></path></svg>