<?xml version="1.0" standalone="no"?><!DOCTYPE svg PUBLIC "-//W3C//DTD SVG 1.1//EN" "http://www.w3.org/Graphics/SVG/1.1/DTD/svg11.dtd"><svg t="1494567268329" class="icon" style="" viewBox="0 0 1024 1024" version="1.1" xmlns="http://www.w3.org/2000/svg" p-id="3624" xmlns:xlink="http://www.w3.org/1999/xlink" width="200" height="200"><defs><style type="text/css"></style></defs><path d="M906.278855 393.716037 433.144024 393.716037c-21.773909 0-39.427988 17.654079-39.427988 39.427988l0 473.134831c0 21.773909 17.654079 39.427988 39.427988 39.427988l473.134831 0c21.773909 0 39.427988-17.654079 39.427988-39.427988L945.706843 433.144024C945.706843 411.370115 928.052764 393.716037 906.278855 393.716037zM906.278855 906.278855 433.144024 906.278855 433.144024 433.144024l473.134831 0L906.278855 906.278855zM275.432073 393.716037l-157.711951 0c-21.773909 0-39.427988 17.654079-39.427988 39.427988l0 473.134831c0 21.773909 17.654079 39.427988 39.427988 39.427988l157.711951 0c21.773909 0 39.427988-17.654079 39.427988-39.427988L314.860061 433.144024C314.860061 411.370115 297.205982 393.716037 275.432073 393.716037zM275.432073 906.278855l-157.711951 0L117.720122 433.144024l157.711951 0L275.432073 906.278855zM906.278855 78.293157 117.721145 78.293157c-21.773909 0-39.427988 17.654079-39.427988 39.427988l0 157.711951c0 21.773909 17.654079 39.427988 39.427988 39.427988l788.558733 0c21.773909 0 39.427988-17.654079 39.427988-39.427988L945.707866 117.721145C945.706843 95.946212 928.052764 78.293157 906.278855 78.293157zM906.278855 275.432073 117.721145 275.432073 117.721145 117.721145l788.558733 0L906.279878 275.432073z" p-id="3625"></path></svg>